<svg width="148" height="140" viewBox="0 0 148 140" fill="none" xmlns="http://www.w3.org/2000/svg">
<path d="M33.5789 2.00006H10C5.58173 2.00006 2 5.58178 2 10.0001V33.579" stroke="#BF8078" stroke-width="4"/>
<path d="M2 106.211L2 129.79C2 134.208 5.58172 137.79 10 137.79H33.5789" stroke="#BF8078" stroke-width="4"/>
<path d="M114.421 137.79H138C142.418 137.79 146 134.208 146 129.79V106.211" stroke="#BF8078" stroke-width="4"/>
<path d="M146 33.5789V9.99998C146 5.5817 142.418 1.99997 138 1.99997L114.421 1.99997" stroke="#BF8078" stroke-width="4"/>
<path d="M98.4167 51.6667C98.4167 53.8105 97.5651 55.8665 96.0492 57.3824C94.5333 58.8984 92.4772 59.75 90.3334 59.75C88.1896 59.75 86.1336 58.8984 84.6176 57.3824C83.1017 55.8665 82.2501 53.8105 82.2501 51.6667C82.2501 49.5228 83.1017 47.4668 84.6176 45.9509C86.1336 44.435 88.1896 43.5833 90.3334 43.5833C92.4772 43.5833 94.5333 44.435 96.0492 45.9509C97.5651 47.4668 98.4167 49.5228 98.4167 51.6667Z" fill="#EB996E" fill-opacity="0.5" stroke="#BF8078" stroke-width="0.666667"/>
<path d="M50.7852 29.9832L50.7854 29.9832C56.2835 29.2473 63.502 29.2395 73.5 29.2395C83.498 29.2395 90.7122 29.2473 96.2103 29.9832L96.2105 29.9832C101.63 30.712 104.952 32.1056 107.423 34.5721L107.424 34.5725C109.89 37.0433 111.288 40.3696 112.017 45.7894L112.017 45.7897C112.753 51.2877 112.76 58.5019 112.76 68.5C112.76 76.6843 112.756 83.0208 112.343 88.1083C111.963 92.7908 111.247 96.1459 110.018 98.7165L109.825 99.1187L109.494 98.8205L97.5843 88.1019L97.8073 87.8541L97.5843 88.1018C95.5162 86.24 92.8776 85.1351 90.1 84.9676C87.3224 84.8002 84.5702 85.5801 82.2934 87.1799L81.0397 88.0634L81.0394 88.0637C79.3543 89.2478 77.3055 89.7997 75.2536 89.622C73.2018 89.4444 71.2783 88.5486 69.8219 87.0924L69.8218 87.0924L51.7681 69.0387L51.7681 69.0386C50.0917 67.3617 47.8405 66.3846 45.4707 66.3054C43.101 66.2262 40.7897 67.0507 39.0051 68.6118L50.7852 29.9832ZM50.7852 29.9832C45.3697 30.712 42.0432 32.1099 39.5765 34.5765C37.1057 37.0474 35.712 40.3698 34.9832 45.7894L34.9832 45.7897C34.2473 51.2877 34.2395 58.5019 34.2395 68.5V72.0518V72.787L34.7925 72.3025L39.0049 68.612L50.7852 29.9832ZM107.188 34.808C109.582 37.2068 110.963 40.4514 111.686 45.8339C112.419 51.3047 112.427 58.4925 112.427 68.5C112.427 76.6894 112.423 83.0103 112.01 88.0813C111.647 92.5554 110.979 95.7802 109.864 98.2564L107.188 34.808ZM107.188 34.808C104.789 32.4135 101.549 31.0374 96.166 30.3135L107.188 34.808ZM96.9675 24.3903L96.9675 24.3903C103.007 25.2018 107.723 26.8929 111.417 30.5829C115.111 34.277 116.798 38.9924 117.61 45.0366L117.61 45.0367C118.406 50.9473 118.406 58.534 118.406 68.2601V68.6304C118.406 76.6691 118.406 83.227 117.97 88.5634L117.97 88.5636C117.533 93.9338 116.642 98.3698 114.663 102.047L114.663 102.047C113.794 103.664 112.719 105.115 111.417 106.417C107.723 110.111 103.008 111.798 96.9634 112.61L96.9632 112.61C91.0526 113.406 83.4659 113.406 73.7398 113.406H73.2601C63.5341 113.406 55.9473 113.406 50.0325 112.61C43.9927 111.798 39.2772 110.107 35.5829 106.417C32.3093 103.143 30.6053 99.0615 29.6996 93.9444L29.6995 93.9438C28.8005 88.9138 28.6358 82.6419 28.6021 74.8194C28.5937 72.8298 28.5937 70.7263 28.5937 68.5042V68.2601C28.5937 58.5341 28.5944 50.9473 29.3903 45.0325L29.3903 45.0324C30.2018 38.9926 31.8929 34.2771 35.583 30.5828C39.2772 26.8887 43.9925 25.2018 50.0366 24.3903L50.0367 24.3903C55.9473 23.5944 63.534 23.5937 73.2601 23.5937H73.7398C83.4659 23.5937 91.0526 23.5944 96.9675 24.3903Z" fill="#EB996E" fill-opacity="0.5" stroke="#BF8078" stroke-width="0.666667"/>
</svg>
